<mxfile host="app.diagrams.net" agent="Mozilla/5.0 (Macintosh; Intel Mac OS X 10_15_7) AppleWebKit/537.36 (KHTML, like Gecko) Chrome/133.0.0.0 Safari/537.36" version="26.1.1">
  <diagram name="Page-1" id="zuXU20YPhB5EoXRP2Lmf">
    <mxGraphModel dx="984" dy="631" grid="1" gridSize="10" guides="1" tooltips="1" connect="1" arrows="1" fold="1" page="1" pageScale="1" pageWidth="827" pageHeight="1169" math="0" shadow="0">
      <root>
        <mxCell id="0" />
        <mxCell id="1" parent="0" />
        <UserObject label="&lt;b style=&quot;font-weight:normal;&quot; id=&quot;docs-internal-guid-24c9d06b-7fff-79a4-2cf0-80f8c1f8b063&quot;&gt;&lt;img width=&quot;577px;&quot; height=&quot;269px;&quot; src=&quot;https://lh7-rt.googleusercontent.com/slidesz/AGV_vUetz7bHCf2exkCbi8QumwA7ZsI82ICy6VelgvNUdrSRH8KeppkBio44raH05NJRqztCsXyRmDNIgXkt5lf_gBUQviSdsEeRPdVKqLxjLeWpSXOp43-DgzKg9_1gBp01ssNzpwh8KQ=s2048?key=m-stBO2EFc6o67YLWsPqiGEL&quot;&gt;&lt;/b&gt;" link="&lt;b style=&quot;font-weight:normal;&quot; id=&quot;docs-internal-guid-24c9d06b-7fff-79a4-2cf0-80f8c1f8b063&quot;&gt;&lt;img width=&quot;577px;&quot; height=&quot;269px;&quot; src=&quot;https://lh7-rt.googleusercontent.com/slidesz/AGV_vUetz7bHCf2exkCbi8QumwA7ZsI82ICy6VelgvNUdrSRH8KeppkBio44raH05NJRqztCsXyRmDNIgXkt5lf_gBUQviSdsEeRPdVKqLxjLeWpSXOp43-DgzKg9_1gBp01ssNzpwh8KQ=s2048?key=m-stBO2EFc6o67YLWsPqiGEL&quot;&gt;&lt;/b&gt;" id="F5to_l6L9lw8fTlafE8o-1">
          <mxCell style="text;whiteSpace=wrap;html=1;" vertex="1" parent="1">
            <mxGeometry x="140" y="120" width="610" height="350" as="geometry" />
          </mxCell>
        </UserObject>
        <mxCell id="F5to_l6L9lw8fTlafE8o-10" value="if d(new , old) &amp;lt; thresh &amp;amp;&amp;nbsp;&lt;br&gt;score &amp;gt; best_score&amp;nbsp;" style="text;html=1;align=center;verticalAlign=middle;whiteSpace=wrap;rounded=0;" vertex="1" parent="1">
          <mxGeometry x="501" y="290" width="160" height="30" as="geometry" />
        </mxCell>
        <mxCell id="F5to_l6L9lw8fTlafE8o-11" value="else" style="text;html=1;align=center;verticalAlign=middle;whiteSpace=wrap;rounded=0;" vertex="1" parent="1">
          <mxGeometry x="551" y="340" width="60" height="30" as="geometry" />
        </mxCell>
        <mxCell id="F5to_l6L9lw8fTlafE8o-22" style="edgeStyle=orthogonalEdgeStyle;rounded=0;orthogonalLoop=1;jettySize=auto;html=1;exitX=1;exitY=1;exitDx=0;exitDy=0;curved=1;strokeWidth=1;strokeColor=light-dark(#262626, #ededed);endArrow=classicThin;endFill=1;endSize=2;" edge="1" parent="1" source="F5to_l6L9lw8fTlafE8o-16">
          <mxGeometry relative="1" as="geometry">
            <mxPoint x="530" y="385" as="targetPoint" />
            <Array as="points">
              <mxPoint x="600" y="385" />
            </Array>
          </mxGeometry>
        </mxCell>
        <mxCell id="F5to_l6L9lw8fTlafE8o-16" value="" style="rounded=0;whiteSpace=wrap;html=1;fillColor=none;strokeColor=none;" vertex="1" parent="1">
          <mxGeometry x="561" y="250" width="40" height="30" as="geometry" />
        </mxCell>
        <mxCell id="F5to_l6L9lw8fTlafE8o-18" value="" style="rounded=0;whiteSpace=wrap;html=1;fillColor=none;strokeColor=none;" vertex="1" parent="1">
          <mxGeometry x="350" y="320" width="180" height="40" as="geometry" />
        </mxCell>
        <mxCell id="F5to_l6L9lw8fTlafE8o-19" value="" style="shape=image;verticalLabelPosition=bottom;labelBackgroundColor=default;verticalAlign=top;aspect=fixed;imageAspect=0;image=data:image/png,iVBORw0KGgoAAAANSUhEUgAAAFYAAABICAYAAABsigIcAAAMPmlDQ1BJQ0MgUHJvZmlsZQAASImVVwdYU8kWnluSkJDQAghICb0JIlICSAmhhd4RbIQkQCgxBoKIvSwquHZRARu6KqLYAbEjdhbF3hdEFJR1sWBX3qSArvvK9873zb3//efMf86cO7cMAOqnuGJxDqoBQK4oXxIb7M8Ym5zCIPUABKCACjBgwuXliVnR0eEA2uD57/buFvSGdt1BpvXP/v9qmnxBHg8AJBriNH4eLxfiQwDglTyxJB8Aoow3n5ovlmHYgLYEJgjxIhnOUOBKGU5T4H1yn/hYNsTNAKhQuVxJBgBqVyHPKOBlQA21PoidRHyhCAB1BsQ+ubmT+RCnQmwDfcQQy/SZaT/oZPxNM21Ik8vNGMKKuchNJUCYJ87hTvs/y/G/LTdHOhjDCjZqpiQkVjZnWLc72ZPDZJgKca8oLTIKYi2IPwj5cn+IUUqmNCRB4Y8a8vLYsGZAF2InPjcgDGJDiINEOZHhSj4tXRjEgRiuELRQmM+Jh1gP4kWCvMA4pc9myeRYZSy0Ll3CZin5C1yJPK4s1iNpdgJLqf86U8BR6mNqRZnxSRBTILYoECZGQqwGsWNedlyY0mdMUSY7ctBHIo2V5W8BcaxAFOyv0McK0iVBsUr/kty8wflimzOFnEglPpCfGR+iqA/WzOPK84dzwa4KRKyEQR1B3tjwwbnwBQGBirlj3QJRQpxS54M43z9WMRaniHOilf64mSAnWMabQeySVxCnHIsn5sMFqdDH08X50fGKPPGiLG5otCIffDkIB2wQABhAClsamAyygLC1t74XXil6ggAXSEAGEAAHJTM4IkneI4LHOFAE/oRIAPKGxvnLewWgAPJfh1jF0QGky3sL5COywVOIc0EYyIHXUvko0VC0RPAEMsJ/ROfCxoP55sAm6//3/CD7nWFBJlzJSAcjMtQHPYmBxABiCDGIaIsb4D64Fx4Oj36wOeNM3GNwHt/9CU8JbYTHhJuEdsLdScJ5kp+yjADtUD9IWYu0H2uBW0FNV9wf94bqUBnXxQ2AA+4C47BwXxjZFbJsZd6yqjB+0v7bDH64G0o/shMZJQ8j+5Ftfh6pZqfmOqQiq/WP9VHkmjZUb/ZQz8/x2T9Unw/PYT97Youwg9h57DR2ETuG1QMGdhJrwFqw4zI8tLqeyFfXYLRYeT7ZUEf4j3iDd1ZWyTynGqcepy+KvnxBoewdDdiTxdMkwozMfAYLfhEEDI6I5ziC4ezk7AqA7PuieH29iZF/NxDdlu/c/D8A8D45MDBw9DsXehKA/e7w8T/ynbNhwk+HKgAXjvCkkgIFh8sOBPiWUIdPmj4wBubABs7HGbgBL+AHAkEoiALxIBlMhNlnwnUuAVPBDDAXFINSsBysAeVgE9gKdoI94ACoB8fAaXAOXAZXwU1wH66eLvAC9IF34DOCICSEhtARfcQEsUTsEWeEifgggUg4EoskI6lIBiJCpMgMZD5SiqxEypEtSDWyHzmCnEYuIm3IXaQD6UFeI59QDKWi2qgRaoWORJkoCw1D49EJaAY6BS1CF6BL0XVoFbobrUNPo5fRm2g7+gLtxwCmiulippgDxsTYWBSWgqVjEmwWVoKVYVVYLdYI7/N1rB3rxT7iRJyOM3AHuIJD8ASch0/BZ+FL8HJ8J16HN+PX8Q68D/9GoBEMCfYETwKHMJaQQZhKKCaUEbYTDhPOwmepi/COSCTqEq2J7vBZTCZmEacTlxA3EPcSTxHbiJ3EfhKJpE+yJ3mTokhcUj6pmLSetJt0knSN1EX6oKKqYqLirBKkkqIiUpmnUqayS+WEyjWVZyqfyRpkS7InOYrMJ08jLyNvIzeSr5C7yJ8pmhRrijclnpJFmUtZR6mlnKU8oLxRVVU1U/VQjVEVqs5RXae6T/WCaofqR6oW1Y7Kpo6nSqlLqTuop6h3qW9oNJoVzY+WQsunLaVV087QHtE+qNHVHNU4any12WoVanVq19ReqpPVLdVZ6hPVi9TL1A+qX1Hv1SBrWGmwNbgaszQqNI5o3Nbo16RrjtKM0szVXKK5S/OiZrcWSctKK1CLr7VAa6vWGa1OOkY3p7PpPPp8+jb6WXqXNlHbWpujnaVdqr1Hu1W7T0dLx0UnUadQp0LnuE67LqZrpcvRzdFdpntA95bup2FGw1jDBMMWD6sddm3Ye73hen56Ar0Svb16N/U+6TP0A/Wz9Vfo1+s/NMAN7AxiDKYabDQ4a9A7XHu413De8JLhB4bfM0QN7QxjDacbbjVsMew3MjYKNhIbrTc6Y9RrrGvsZ5xlvNr4hHGPCd3Ex0RostrkpMlzhg6DxchhrGM0M/pMDU1DTKWmW0xbTT+bWZslmM0z22v20JxizjRPN19t3mTeZ2FiEWExw6LG4p4l2ZJpmWm51vK85Xsra6skq4VW9Vbd1nrWHOsi6xrrBzY0G1+bKTZVNjdsibZM22zbDbZX7VA7V7tMuwq7K/aovZu90H6DfdsIwgiPEaIRVSNuO1AdWA4FDjUOHY66juGO8xzrHV+OtBiZMnLFyPMjvzm5OuU4bXO6P0prVOioeaMaR712tnPmOVc43xhNGx00evbohtGvXOxdBC4bXe640l0jXBe6Nrl+dXN3k7jVuvW4W7inule632ZqM6OZS5gXPAge/h6zPY55fPR088z3POD5l5eDV7bXLq/uMdZjBGO2jen0NvPmem/xbvdh+KT6bPZp9zX15fpW+T72M/fj+233e8ayZWWxdrNe+jv5S/wP+79ne7Jnsk8FYAHBASUBrYFagQmB5YGPgsyCMoJqgvqCXYOnB58KIYSEhawIuc0x4vA41Zy+UPfQmaHNYdSwuLDysMfhduGS8MYINCI0YlXEg0jLSFFkfRSI4kStinoYbR09JfpoDDEmOqYi5mnsqNgZsefj6HGT4nbFvYv3j18Wfz/BJkGa0JSonjg+sTrxfVJA0sqk9rEjx84ceznZIFmY3JBCSklM2Z7SPy5w3JpxXeNdxxePvzXBekLhhIsTDSbmTDw+SX0Sd9LBVEJqUuqu1C/cKG4Vtz+Nk1aZ1sdj89byXvD9+Kv5PQJvwUrBs3Tv9JXp3RneGasyejJ9M8sye4VsYbnwVVZI1qas99lR2TuyB3KScvbmquSm5h4RaYmyRc2TjScXTm4T24uLxe1TPKesmdInCZNsz0PyJuQ15GvDH/kWqY30F2lHgU9BRcGHqYlTDxZqFooKW6bZTVs87VlRUNFv0/HpvOlNM0xnzJ3RMZM1c8ssZFbarKbZ5rMXzO6aEzxn51zK3Oy5v89zmrdy3tv5SfMbFxgtmLOg85fgX2qK1YolxbcXei3ctAhfJFzUunj04vWLv5XwSy6VOpWWlX5Zwlty6ddRv677dWBp+tLWZW7LNi4nLhctv7XCd8XOlZori1Z2ropYVbeasbpk9ds1k9ZcLHMp27SWsla6tn1d+LqG9Rbrl6//Up5ZfrPCv2JvpWHl4sr3G/gbrm3021i7yWhT6aZPm4Wb72wJ3lJXZVVVtpW4tWDr022J287/xvytervB9tLtX3eIdrTvjN3ZXO1eXb3LcNeyGrRGWtOze/zuq3sC9jTUOtRu2au7t3Qf2Cfd93x/6v5bB8IONB1kHqw9ZHmo8jD9cEkdUjetrq8+s769Ibmh7UjokaZGr8bDRx2P7jhmeqziuM7xZScoJxacGDhZdLL/lPhU7+mM051Nk5runxl75kZzTHPr2bCzF84FnTtznnX+5AXvC8cuel48col5qf6y2+W6FteWw7+7/n641a217or7lYarHlcb28a0nbjme+309YDr525wbly+GXmz7VbCrTu3x99uv8O/03035+6rewX3Pt+f84DwoOShxsOyR4aPqv6w/WNvu1v78Y6AjpbHcY/vd/I6XzzJe/Kla8FT2tOyZybPqrudu4/1BPVcfT7uedcL8YvPvcV/av5Z+dLm5aG//P5q6Rvb1/VK8mrg9ZI3+m92vHV529Qf3f/oXe67z+9LPuh/2PmR+fH8p6RPzz5P/UL6su6r7dfGb2HfHgzkDgyIuRKu/FcAgw1NTwfg9Q4AaMkA0OH+jDJOsf+TG6LYs8oR+E9YsUeUmxsAtfD/PaYX/t3cBmDfNrj9gvrq4wGIpgEQ7wHQ0aOH2uBeTb6vlBkR7gM2x31Ny00D/8YUe84f8v75DGSqLuDn878ApBF8Qvefy/0AAACKZVhJZk1NACoAAAAIAAQBGgAFAAAAAQAAAD4BGwAFAAAAAQAAAEYBKAADAAAAAQACAACHaQAEAAAAAQAAAE4AAAAAAAAAkAAAAAEAAACQAAAAAQADkoYABwAAABIAAAB4oAIABAAAAAEAAABWoAMABAAAAAEAAABIAAAAAEFTQ0lJAAAAU2NyZWVuc2hvdL+oq/EAAAAJcEhZcwAAFiUAABYlAUlSJPAAAAHUaVRYdFhNTDpjb20uYWRvYmUueG1wAAAAAAA8eDp4bXBtZXRhIHhtbG5zOng9ImFkb2JlOm5zOm1ldGEvIiB4OnhtcHRrPSJYTVAgQ29yZSA2LjAuMCI+CiAgIDxyZGY6UkRGIHhtbG5zOnJkZj0iaHR0cDovL3d3dy53My5vcmcvMTk5OS8wMi8yMi1yZGYtc3ludGF4LW5zIyI+CiAgICAgIDxyZGY6RGVzY3JpcHRpb24gcmRmOmFib3V0PSIiCiAgICAgICAgICAgIHhtbG5zOmV4aWY9Imh0dHA6Ly9ucy5hZG9iZS5jb20vZXhpZi8xLjAvIj4KICAgICAgICAgPGV4aWY6UGl4ZWxZRGltZW5zaW9uPjcyPC9leGlmOlBpeGVsWURpbWVuc2lvbj4KICAgICAgICAgPGV4aWY6UGl4ZWxYRGltZW5zaW9uPjg2PC9leGlmOlBpeGVsWERpbWVuc2lvbj4KICAgICAgICAgPGV4aWY6VXNlckNvbW1lbnQ+U2NyZWVuc2hvdDwvZXhpZjpVc2VyQ29tbWVudD4KICAgICAgPC9yZGY6RGVzY3JpcHRpb24+CiAgIDwvcmRmOlJERj4KPC94OnhtcG1ldGE+Co+Zn0oAAAAcaURPVAAAAAIAAAAAAAAAJAAAACgAAAAkAAAAJAAABhTBeouwAAAF4ElEQVR4Aeya2U9cdRTHv/fOAgxbgJmWWgpTCKUsbbpBA7FSWzFSkyaVxCcf1EQffDHxb/DJ+NzEB5/UxGoaLbW0qbYoFU1NVIpFQQhQKEtZZZnOdmfGc34wA8PcWe7Qa6gzvxDm3t89v+1zz++c8zszUoAKVIqfqv3+ANSfqjRIkSqJ10n/DLIMSdyoL1xSA+vy+PBgagV3eibh8vjVW6ZoLbPMtZhwpr4EtoJMmI0GVcARYJ1uBR+39wuwXiUNNZr+GAwSTtbuRtvz5eDrrSUMLG//7nvTuPLDCBSfqoXY2j6l740GGa+2VKChZlcEh3CwZFM/vf43egbnhX2NkE5XhBGQycjWVRTizfMHw+r5Jgysj8B+0jGA3sEFsPamS2wC7Lyq7YV4+0J1hGAabASSxCvSYBNnpUkyDVYTrsSF02ATZ6VJMg1WE67EhbcNljuQZYlOcpGBcOLTeLol+eTPkdLmYGlbYLlxcZEFrU2l4iiXmnADWFh241r3GOaXXCEN2RZYDoKfPVKM88/ZReIh1GuKXSg+P9q7Ril/MhVa+bbBNh7ajVfO0JmYzEGqFh8d8S93DuOn3ukQgicDNkqyITTK//xCd7DCiPv94AMv21vh1PjVrZeAzwdh4eOdiLmJRDlNSmQ8DUVXsDKlx2bmFnH1djfcHi/MJiNam0+ipHgtuxNQFMxcugrH/f41uLGI0cvIOVIHW9s5SJTT3OlFX7CkXAMj4/jqZhcpZYC0VcbZxuOoP7yW3fE7XRj74CI8Ext2KBawzP2lKHnvLcgZGbHEdsQzXcFyQtfpcqN3YBgeL2ms0Yi6qnJkZ2WuLZ5gO4dG4egfovv4tsBSWQ4LtVdNwe8InBuT0B0sD8XaumZjmcmGfRXT4Aha/MUHK5pubb+xlh11pTtYATUEltwXcY2AuwlJgHK8YceVTc8SuqQBRP/r72/b/fEJMomXqTvYVYcT39/9HatOJ3KzLWg8WovC/Dx1RsR0tmcUi39OIEABtvYiIW+/DcVNlSJ68Lm8mOjsg3N2RXtX1IKBWo/ZUVhTQjfautAVLPkq/DU8his37whTwF8Bn206jhOHqtRnSZr92/tfw6/4klZaQ4YRh99thTHbjOWRWQx+1o2Al/pTHzFmLStq9r4iHHyjWXOYpytYdl5LKw7c6LqL5VUHCvJzcfrkUVgL8tUXRKuf+nEAi33jBDcJjSUQ+ZV7UHK2VoBQHrsxdqMXj6cW4/tGlRnJJgNs9eWwHrVrNge6gw0eEDjTw+EW5xJi2Sy2iQE6UCSnstQ3vUyJt8p6YZMi7GwyOstzpb6kJI7muoPl9THcYIkFVcisO7q4HEg7adlhtk+MszFUcMi4n7zl6W3HldMioDtYr1fB4IOHFMcqMNGJqaJ0LzIzzFHn6JhchHN6KexlqAnzC8reV4gsKzlCYqI4Pfinf3JdO9VaRK8zWsxkQoohP8ETna5geUf2k/Nq/44ciDAFEl5oOoFjdQfUV0kyPR9eg+Jwqz/fUptjt+LAa6fE9p/7dQRjHT1JgeX8Q+07LcgsytkyQvK3uoOdnl3AF9c7Ra7ARCevCy+egn1vsfqMaRsPXfoZy0PTcU0sb1xbQwVKWuqEzV4aeoSRy7/ARxGA1mLOz0LV680w52VpbRpVXlewHBXwLxAVymAFNZZDLnZi0YoItcTPleIbS966wWwX9y/CKvrUWoSDIq1NxklFG0t3sDzw2lppwexlo81kc32icJ6ww9k8he1e6w7WR6HTzPwi2ImZKG24q6gg5lc2bF9dcyvxbSWFQFm2PLDj2YlFV7C84ydn5vH5N7eEKWAz8BLlY6srytRZkKb2fXQL7vnVoJqry4laCYWHS1H28pGQOYgh/J8/0h3s6MQjfNlxW9haA9mxc6cbUVtpV18ogb1/8VuhsXHjWOqhoGYvytsaUg8sOy92XCMPp4Q5KN2zG8/sstIPb6M7L++KC/N/jMPnUdThr9fKRpmOmmUwWSjpvQNtrVaN/RcAAP//MHWBhAAABjdJREFU7Zr7cxNVFMe/u5s0m7RJ07SlDx4WCvSJA1p+4FWkA8z4FkZ/0F+ccUbG0R/8K5zxD9C/wPGBSmdoR0RAGUAYlMqjIAqFtrQW+oC0pM375TnbJi3NZjepbKkkt53s5u7Zu/d+cu455569QpwKZko0FscXR26gu8eN2Ey1KAjYsqEC+3etgSQJCdGcO0ajcRw62Ytz3cPJsRMaNNS4cGBfQ7IucSLkwSZQaB8NBxsIhnD69ysYGhlDdUUZtj7XDHuhTb1XNBc8t4dx99TfiAYj6jIztZJsxvK2JhStKoVAqhD2BvDP8WvwDU8AyTml2cT0RdKikvpqVG5bD7HAlMENmYkYClYUBfT0D+LQT6cRi8VgkiTs3bEZmxrXqfeOzMmlTzsQDYQRJzOjWQimvaYMde+2AvScsQu9GPzxMmKRmOZtahcZaNOHeyCXFqldXlCd4WDvj0/gy44TCIXCEEURb7/ahuUV5eqdJbC97Rcwfn2ItE4HLARU7axH1fY6CATW0zeGW1+fQzyaJVj6gQocVtS/9wLMdlm9XwuoNRRswnn5g0FEIlFyZhKssoWQpC9x0uyIN0RctcGyIzDZqC1JTDYW8QUXpLGSxQTJYk628zhOFgXs4+jo/60Nw8FGolHcHhiCzx9EoU1G7crlpLmzWjYfWGjSj4c9I7pTmjXVub4S5kILyHsp8m4yIWyfsyqk+bKrSLHXApkqdnzxeAzjf91FxBfKqinuh22ZA4UrXBR+wrhwS6Q4dvDeKL7p/JkeFINEHX951xY0rq1R7zBN/2ufHUfQPaVrCtieuJpWYvW+FsXGPugeQH/HRd0fRO3BkrUAjQfaYCkpVJ774MoA7nT8oe9AVRqTyBE2frAbUrEV7Sf7jIljWQEY7FcElnqsOK9X2vTAHkOAwGYSMpU0rcCa/ZuVqMBNMPo7FwiWbCzDUMCSqrmvUluHFwZWNInY8PGLEGwFxoFl5xUlZ8QxrGfSh5LiIlSWlWqagrA3iMn+McTJ2WkVnraO2mWKA2M5Ds88faOITAW0blO9Jpc7YKt0KpqfEPBQH8IP/dxyoiqDowC53I7CKieN20BTkIgK5np4DuY1C9s4xdBpSpFd5X/lY1aQZoVOMDErO+dM6dL8fnFbLJMdV+6RYvMNd16cQwjS6mvCMwWX0wGzyUQmIT3caCii2Fi9QJ9jVytpmmiWeChLrhgKlp3XffcEDv7wixIVWMiwv7G3Fc9UV6iDIO249d15PLxxjzRFR1VIwyq2rKVlbfMjU1i94cWvNRYsOa9bd4bw/dFTNDJyXoKY4ZKW8wQ6YEnCXluBde9sAzuMpVYMBcs2NhQO4+KfN+EPhJRV18aGtZAtBWk5eIfcmCCN1Vuachxb+uwqyGX2tG09yQuGg+UZPe286ISmr/KX3sROyyrKqqex1BK3M9/pPEmac569CGDjlNlibx1XbCEnwrUiA84VKJktLa4EVOTV2xKFynwNBzvl9ePomd/g9QWUJe3urS1wOtKk5wjmyPmbcF/Tzm5xLnbVSxun03xLFK6hYHnldaNvEO2Uj+XCYdaebS14vrlO+Z7yQVp98ZPDiIUjmkEBW4DK1rolGxHwuAwFy87LM+nFsbNdmJzykqbasb1lA8pdzhSmSgVp7GhXr/IWQSvRLZlNqG5rpOQJOS4Ne63+kMWpNRws21Z+e8BOjG0ra622jSVBEmb5dIVnPy8QctrGpoPztNcbrrFPO8B043vsYHmab24ox1u7a3N+X8HBE7fRdX00yZ5N2IL3FXArdpsZOzZVocRO76SWqHNJjtaAE/YPw24ffr08jGBoNv35n8EyS3YuuQg18TsxXHbcc51wlmBv0hajB8ktRomG88dUAgy2kbYYva+3xYiXqp1n+nH60j3KmGvER6nPyMkaiWZxK5nI13euThn/I3u3WM0HRqbw+bdXEaZ3EXPVPuXOHK9gbXU5ZHz0ZjNcxfRmeV55BCxfY5g9gxM4cnYAo+N+Sg/ScnTeTbn8lf2NzWpGuVPGa601WF3tUPU9KWAZGpuEAHk/P21ki/BbtDzZWV0ismbKxFllEywFEiX7GXVqUQWbKpavyZZAHmy2xDKUz4PNEFS2Ynmw2RLLUP5fqs1esEM9BSQAAAAASUVORK5CYII=;" vertex="1" parent="1">
          <mxGeometry x="494.16999999999996" y="370" width="35.83" height="30" as="geometry" />
        </mxCell>
        <mxCell id="F5to_l6L9lw8fTlafE8o-24" value="" style="rounded=0;whiteSpace=wrap;html=1;strokeColor=none;" vertex="1" parent="1">
          <mxGeometry x="620" y="190" width="100" height="90" as="geometry" />
        </mxCell>
        <mxCell id="F5to_l6L9lw8fTlafE8o-25" value="" style="shape=image;verticalLabelPosition=bottom;labelBackgroundColor=default;verticalAlign=top;aspect=fixed;imageAspect=0;image=data:image/png,iVBORw0KGgoAAAANSUhEUgAAAMoAAAByCAYAAAAS/E6wAAAMPmlDQ1BJQ0MgUHJvZmlsZQAASImVVwdYU8kWnluSkJDQAghICb0JIlICSAmhhd4RbIQkQCgxBoKIvSwquHZRARu6KqLYAbEjdhbF3hdEFJR1sWBX3qSArvvK9873zb3//efMf86cO7cMAOqnuGJxDqoBQK4oXxIb7M8Ym5zCIPUABKCACjBgwuXliVnR0eEA2uD57/buFvSGdt1BpvXP/v9qmnxBHg8AJBriNH4eLxfiQwDglTyxJB8Aoow3n5ovlmHYgLYEJgjxIhnOUOBKGU5T4H1yn/hYNsTNAKhQuVxJBgBqVyHPKOBlQA21PoidRHyhCAB1BsQ+ubmT+RCnQmwDfcQQy/SZaT/oZPxNM21Ik8vNGMKKuchNJUCYJ87hTvs/y/G/LTdHOhjDCjZqpiQkVjZnWLc72ZPDZJgKca8oLTIKYi2IPwj5cn+IUUqmNCRB4Y8a8vLYsGZAF2InPjcgDGJDiINEOZHhSj4tXRjEgRiuELRQmM+Jh1gP4kWCvMA4pc9myeRYZSy0Ll3CZin5C1yJPK4s1iNpdgJLqf86U8BR6mNqRZnxSRBTILYoECZGQqwGsWNedlyY0mdMUSY7ctBHIo2V5W8BcaxAFOyv0McK0iVBsUr/kty8wflimzOFnEglPpCfGR+iqA/WzOPK84dzwa4KRKyEQR1B3tjwwbnwBQGBirlj3QJRQpxS54M43z9WMRaniHOilf64mSAnWMabQeySVxCnHIsn5sMFqdDH08X50fGKPPGiLG5otCIffDkIB2wQABhAClsamAyygLC1t74XXil6ggAXSEAGEAAHJTM4IkneI4LHOFAE/oRIAPKGxvnLewWgAPJfh1jF0QGky3sL5COywVOIc0EYyIHXUvko0VC0RPAEMsJ/ROfCxoP55sAm6//3/CD7nWFBJlzJSAcjMtQHPYmBxABiCDGIaIsb4D64Fx4Oj36wOeNM3GNwHt/9CU8JbYTHhJuEdsLdScJ5kp+yjADtUD9IWYu0H2uBW0FNV9wf94bqUBnXxQ2AA+4C47BwXxjZFbJsZd6yqjB+0v7bDH64G0o/shMZJQ8j+5Ftfh6pZqfmOqQiq/WP9VHkmjZUb/ZQz8/x2T9Unw/PYT97Youwg9h57DR2ETuG1QMGdhJrwFqw4zI8tLqeyFfXYLRYeT7ZUEf4j3iDd1ZWyTynGqcepy+KvnxBoewdDdiTxdMkwozMfAYLfhEEDI6I5ziC4ezk7AqA7PuieH29iZF/NxDdlu/c/D8A8D45MDBw9DsXehKA/e7w8T/ynbNhwk+HKgAXjvCkkgIFh8sOBPiWUIdPmj4wBubABs7HGbgBL+AHAkEoiALxIBlMhNlnwnUuAVPBDDAXFINSsBysAeVgE9gKdoI94ACoB8fAaXAOXAZXwU1wH66eLvAC9IF34DOCICSEhtARfcQEsUTsEWeEifgggUg4EoskI6lIBiJCpMgMZD5SiqxEypEtSDWyHzmCnEYuIm3IXaQD6UFeI59QDKWi2qgRaoWORJkoCw1D49EJaAY6BS1CF6BL0XVoFbobrUNPo5fRm2g7+gLtxwCmiulippgDxsTYWBSWgqVjEmwWVoKVYVVYLdYI7/N1rB3rxT7iRJyOM3AHuIJD8ASch0/BZ+FL8HJ8J16HN+PX8Q68D/9GoBEMCfYETwKHMJaQQZhKKCaUEbYTDhPOwmepi/COSCTqEq2J7vBZTCZmEacTlxA3EPcSTxHbiJ3EfhKJpE+yJ3mTokhcUj6pmLSetJt0knSN1EX6oKKqYqLirBKkkqIiUpmnUqayS+WEyjWVZyqfyRpkS7InOYrMJ08jLyNvIzeSr5C7yJ8pmhRrijclnpJFmUtZR6mlnKU8oLxRVVU1U/VQjVEVqs5RXae6T/WCaofqR6oW1Y7Kpo6nSqlLqTuop6h3qW9oNJoVzY+WQsunLaVV087QHtE+qNHVHNU4any12WoVanVq19ReqpPVLdVZ6hPVi9TL1A+qX1Hv1SBrWGmwNbgaszQqNI5o3Nbo16RrjtKM0szVXKK5S/OiZrcWSctKK1CLr7VAa6vWGa1OOkY3p7PpPPp8+jb6WXqXNlHbWpujnaVdqr1Hu1W7T0dLx0UnUadQp0LnuE67LqZrpcvRzdFdpntA95bup2FGw1jDBMMWD6sddm3Ye73hen56Ar0Svb16N/U+6TP0A/Wz9Vfo1+s/NMAN7AxiDKYabDQ4a9A7XHu413De8JLhB4bfM0QN7QxjDacbbjVsMew3MjYKNhIbrTc6Y9RrrGvsZ5xlvNr4hHGPCd3Ex0RostrkpMlzhg6DxchhrGM0M/pMDU1DTKWmW0xbTT+bWZslmM0z22v20JxizjRPN19t3mTeZ2FiEWExw6LG4p4l2ZJpmWm51vK85Xsra6skq4VW9Vbd1nrWHOsi6xrrBzY0G1+bKTZVNjdsibZM22zbDbZX7VA7V7tMuwq7K/aovZu90H6DfdsIwgiPEaIRVSNuO1AdWA4FDjUOHY66juGO8xzrHV+OtBiZMnLFyPMjvzm5OuU4bXO6P0prVOioeaMaR712tnPmOVc43xhNGx00evbohtGvXOxdBC4bXe640l0jXBe6Nrl+dXN3k7jVuvW4W7inule632ZqM6OZS5gXPAge/h6zPY55fPR088z3POD5l5eDV7bXLq/uMdZjBGO2jen0NvPmem/xbvdh+KT6bPZp9zX15fpW+T72M/fj+233e8ayZWWxdrNe+jv5S/wP+79ne7Jnsk8FYAHBASUBrYFagQmB5YGPgsyCMoJqgvqCXYOnB58KIYSEhawIuc0x4vA41Zy+UPfQmaHNYdSwuLDysMfhduGS8MYINCI0YlXEg0jLSFFkfRSI4kStinoYbR09JfpoDDEmOqYi5mnsqNgZsefj6HGT4nbFvYv3j18Wfz/BJkGa0JSonjg+sTrxfVJA0sqk9rEjx84ceznZIFmY3JBCSklM2Z7SPy5w3JpxXeNdxxePvzXBekLhhIsTDSbmTDw+SX0Sd9LBVEJqUuqu1C/cKG4Vtz+Nk1aZ1sdj89byXvD9+Kv5PQJvwUrBs3Tv9JXp3RneGasyejJ9M8sye4VsYbnwVVZI1qas99lR2TuyB3KScvbmquSm5h4RaYmyRc2TjScXTm4T24uLxe1TPKesmdInCZNsz0PyJuQ15GvDH/kWqY30F2lHgU9BRcGHqYlTDxZqFooKW6bZTVs87VlRUNFv0/HpvOlNM0xnzJ3RMZM1c8ssZFbarKbZ5rMXzO6aEzxn51zK3Oy5v89zmrdy3tv5SfMbFxgtmLOg85fgX2qK1YolxbcXei3ctAhfJFzUunj04vWLv5XwSy6VOpWWlX5Zwlty6ddRv677dWBp+tLWZW7LNi4nLhctv7XCd8XOlZori1Z2ropYVbeasbpk9ds1k9ZcLHMp27SWsla6tn1d+LqG9Rbrl6//Up5ZfrPCv2JvpWHl4sr3G/gbrm3021i7yWhT6aZPm4Wb72wJ3lJXZVVVtpW4tWDr022J287/xvytervB9tLtX3eIdrTvjN3ZXO1eXb3LcNeyGrRGWtOze/zuq3sC9jTUOtRu2au7t3Qf2Cfd93x/6v5bB8IONB1kHqw9ZHmo8jD9cEkdUjetrq8+s769Ibmh7UjokaZGr8bDRx2P7jhmeqziuM7xZScoJxacGDhZdLL/lPhU7+mM051Nk5runxl75kZzTHPr2bCzF84FnTtznnX+5AXvC8cuel48col5qf6y2+W6FteWw7+7/n641a217or7lYarHlcb28a0nbjme+309YDr525wbly+GXmz7VbCrTu3x99uv8O/03035+6rewX3Pt+f84DwoOShxsOyR4aPqv6w/WNvu1v78Y6AjpbHcY/vd/I6XzzJe/Kla8FT2tOyZybPqrudu4/1BPVcfT7uedcL8YvPvcV/av5Z+dLm5aG//P5q6Rvb1/VK8mrg9ZI3+m92vHV529Qf3f/oXe67z+9LPuh/2PmR+fH8p6RPzz5P/UL6su6r7dfGb2HfHgzkDgyIuRKu/FcAgw1NTwfg9Q4AaMkA0OH+jDJOsf+TG6LYs8oR+E9YsUeUmxsAtfD/PaYX/t3cBmDfNrj9gvrq4wGIpgEQ7wHQ0aOH2uBeTb6vlBkR7gM2x31Ny00D/8YUe84f8v75DGSqLuDn878ApBF8Qvefy/0AAACKZVhJZk1NACoAAAAIAAQBGgAFAAAAAQAAAD4BGwAFAAAAAQAAAEYBKAADAAAAAQACAACHaQAEAAAAAQAAAE4AAAAAAAAAkAAAAAEAAACQAAAAAQADkoYABwAAABIAAAB4oAIABAAAAAEAAADKoAMABAAAAAEAAAByAAAAAEFTQ0lJAAAAU2NyZWVuc2hvdE50L50AAAAJcEhZcwAAFiUAABYlAUlSJPAAAAHWaVRYdFhNTDpjb20uYWRvYmUueG1wAAAAAAA8eDp4bXBtZXRhIHhtbG5zOng9ImFkb2JlOm5zOm1ldGEvIiB4OnhtcHRrPSJYTVAgQ29yZSA2LjAuMCI+CiAgIDxyZGY6UkRGIHhtbG5zOnJkZj0iaHR0cDovL3d3dy53My5vcmcvMTk5OS8wMi8yMi1yZGYtc3ludGF4LW5zIyI+CiAgICAgIDxyZGY6RGVzY3JpcHRpb24gcmRmOmFib3V0PSIiCiAgICAgICAgICAgIHhtbG5zOmV4aWY9Imh0dHA6Ly9ucy5hZG9iZS5jb20vZXhpZi8xLjAvIj4KICAgICAgICAgPGV4aWY6UGl4ZWxZRGltZW5zaW9uPjExNDwvZXhpZjpQaXhlbFlEaW1lbnNpb24+CiAgICAgICAgIDxleGlmOlBpeGVsWERpbWVuc2lvbj4yMDI8L2V4aWY6UGl4ZWxYRGltZW5zaW9uPgogICAgICAgICA8ZXhpZjpVc2VyQ29tbWVudD5TY3JlZW5zaG90PC9leGlmOlVzZXJDb21tZW50PgogICAgICA8L3JkZjpEZXNjcmlwdGlvbj4KICAgPC9yZGY6UkRGPgo8L3g6eG1wbWV0YT4KetXLqAAAABxpRE9UAAAAAgAAAAAAAAA5AAAAKAAAADkAAAA5AAAL3VZ8Q5MAAAupSURBVHgB7Jp5dFTVHce/82bLvhJCEhYTsNUKqCzRHqulIppgtYeaqhwxFOsSWULQaiJYQCy4gGsVMBBZSoFgUVsEKh7wIKLF41IBCcpJQiBJScg+mUlme9PffZOELJPJTTgQevzdP/LezPvd++77vt/n3t/vN9E1WJs94MYKsAJ+FdAxKH714YusgKYAg8KOwApIKMCgSIjEJqwAg8I+wApIKMCgSIjEJqwAg8I+wApIKMCgSIjEJqwAg8I+wApIKMCgSIjEJqwAg8I+wApIKMCgSIjEJqwAg8I+wApIKMCgSIjEJqwAg8I+wApIKMCgSIjEJqwAg8I+wApIKMCgSIjEJqwAg8I+wApIKMCgSIjEJqwAg8I+wApIKMCgSIjEJqwAg8I+wApIKMCgSIjEJqwAg8I+wApIKMCgSIjEJqwAg8I+wApIKMCgSIjEJqwAg8I+wApIKMCgSIjEJqwAg8I+wApIKMCgSIjEJqwAg8I+wApIKMCgSIjEJqwAg8I+wApIKMCgSIjEJqwAg8I+wApIKMCgSIjEJqwAg8I+wApIKMCgSIjEJqwAg8I+wApIKMCgSIjEJqwAg8I+wApIKHDJguKhybtcKpwuD+gAnQKY9DoY9QoUOu9Nc7kBh9s7DnWnMXQwKB4oOl1vhmHbH7EClxwoAoKaBjf2ftmILwqacLLSiVqrigCTguhQBcMTzPjl6EAkXxkIs7F7YgQDNrsH+4978MUJN4qrgVobEGICEiKAK+KASaP1SIhWwLj8iAmQfPRLChTh3F9/b8Oit6tQUU/bgL7rUwinVp1A8lWBeOq+KMRHm7o4uoCtimB7eruKogqy7zoMQFuW6vRg3mQ9Jo7SI8Doy4i/YwW8ClwyoAhI3t1fj7yd9aiyuoUf+29kMHKICY9OicTVwwNhNHj3BQHJN8VuvLlHxak6gqFlII+ghc5FCNeeLDN9vnOMgnt+riAs0DuG/xvz1R+jApcEKMK5N+2pxaaPGlBDYVZ7SHTtvNrT4Qr5PRkODNNj/rQYjPtpAIVnOhRWqFj6nhunCRIxjkob00AKtSaPVhAbrkNBmYp936qweQiKFi50BNEdY3S4/0Y9whmW/wsOdC35pUc4wUVolwQoh47Z8PzfqvHfelcbCmIHGBylxzUjApAUb0RDk4rvTzlw9KQDVrsXJj0l5aIlxRiw8Pcx0Bv1WPa+itJ6nTZOMIVTackKpoxXEBJAtkJTOtQ0epC3340DlL/YKIwTLYBgnTlJwYSf9S0MEy+u/cuTfYGKWCVamugj26+1T2+O7efY2k9VfQamrZe1Y/s5ii966tPX+3S4qZ8P4v6WkkIYQyJgDA2F3mSiAs85Hf107fOlfgfFTbHRvJWV+OpEE1xUmdIavbtbrg3CjNRwXBZnorBK0XYPu0PFoQIb3ni3FuV1FJ617AhiURkSY0RkbBRKLQY4XPQyqVr2+GQDOb6CQErgO7dmyk9W7XXj42MeNJO9aLHhwPJ7DYijnac365RwjJKSElRXnaVncCM6KhpDhw2DwWDwDtzNXwFFUVEh6urqNOeLj4tHXHz8BXvplZUVKC8ro0qi94HNZjMSE5MQEhLSBnnnqTY12WiORWiyNZEmVCkkhxxGzxYVFUXnXZNIoYWlrgaFJ0vgcDi04URUcNXIkQgMDOw8fJ8+N1sssJ89DacSBJ3RjNAB0TCajN0+Q59u0qlTv4IiFoG1O2qw+WMLLM3elU04/bgkM7LvG4ChsZSot8DQOm/x+ZsTNqzIr0XJWWeHRF0xmmCOpFWGdpoZNxlwx1gDQdJpgNaB6CjGeirfjv+c0lEJmuCgKfyG8pX0G3uXrwggnlm8EGveWq05/UMPZ+CpBU9rztTudl1OneRIs2Y+gh07dpAj2vDC8pcw7f50BAcHd7E93y+EA2/csA7PPrMYlZWV2nDmgACszcvDrbdNhoDGV9vz4W5kzc3UABPXgwmqv7yxEqmTb/fp+AaDHi88/xzeeP011NbWakOKe6/bsBEpqbcjgO55Pk0sLvVnq2Gi96ooOoLejaCQMOgMxgu2wIj59hsown1LKh3Ier0CZbW0wrX4c1SIguWPDMSVwwKgJyF8NeHgh6h0/Mr2apRWuc4l7ASZMSQIvxgdhtkpZgyincH3CN5RxbWCchUv7fTmNCLxF8n9kjQ9Rg1V6LcWX3fv+p1BrydQFuGt1Ss1UDIyHkXOgj/1DIrTiczZs/D+e9thtVrx4oqXcX/69AsGypbNm7Dw6QU4c+ZM20PMmZuFJ5/MQURkZJewT0/P1er0NTVUX6cWSqHOm6tzkZKSQk7fdYewWBqQmnIrjh4+3BaiCVCmpadj0eIlGDgwtu3efTkRu1RTQ4NWvNHT+7I1NcNgNCIwIlI79mVMmT79BoqY3LoP67BtfwMabN7dRJRrs6dG47bkENoJevbS9XvqsHVfPe1GpFhLc1L+8urseIy/wqztLK3fd3cUcLzygQv7T3hDMAFhGuU091wnv6v0JyjCCTs3X3mOsPMFSvSAAfho38cYMfzyzsMQOCquTx6HgmPH2q75A0WEZbt27URW5mxtBzKSA7sozBPzGTNmLHLX5mHE5T85r5Xf2WxHU6MFRqM3J3Q5VZiDQ2CgHdGXFm0TP8+TfgPFZndj6V+r8PnxZtgpnxBteKwRi6bHIJHykm42kw6P63CrmLW6HgWFFgqbzoVuE0YGIvOuKMRGUdzaoUfXD8LPvipWsWKHG1X0g6ToMDJeh+w79YgN66m3d7z+AEU4hXDkijMVOHmyGLV1tQgKCsKgQXFISkoiRzJ12CG6A0V8v2r1Gky5664OoZRw+j0f/gtzZs1EWVlpm3D+QHETFPOyMvHOtm2w2ayYOXsOPj3wCY599x1EmLeewq8JE26GqZswr+0mfk7sBEpVRTVEehRAYZ4pwITAsDCf+ZKfYXp9qd9AKaeQ6bHcSpRW04pDTq5SIp92Yyj+kBqJiJCuSWLnJxMO/jU5+IvvO1BaWk3Je0v5ShgSd0umR+Km0aFaIaBz386fxb+1PPS2C0WVXmAFHqtmGJAY4z90ax3nYoMiYvPy8jLMz8nB7t27YKOwrbUJxx+ffB3eWpOHxMTEtlXWHyhXX3MNNm3eiqFDh7UOo636t6fehs8OfgonhYitzR8ooljw8IMPEBwHtD6Hvvwa7+RvRS7lbvX19XgiOwdZWY8hLDy8A8StY8sc3TQXu62R1jOKABxuqPS8kVphoecIRGb87mz6BRRarPCPg43I3VVH/1bi3QlcFDK9nBGD5CuCqFrU80pea/XghX+6caTMgyarDQ6KWwVwOnIisdXHBCt4MSMWI+J73p3EfLYedCP/Cyo72r2/vcymUnHK1XKl4osJiljp87duxnNLl6K4uAhuqrL5ar+6eSJefe11XEZVLQFJZ1BGjhqtFRBOnSpBfHwC8tatx5ix49oqdaKKlz5tKg5/+y2SCbwjR46gkUIef6Ac+GQ/Mh5+EKdPn8bESZOwhkKtgwRNTna2BnZCwmB8sGs3koaP8DXlDt+JErB4Vu87FUc3PYOCRqoQuilPET8F6GmF05GNOZiSefESL2DrF1DECj4/rxKf/eCE06PQbqIi0qxi5dxBWpm3p+cVmvz9325s+VxFPTm22EKsZ85C56GigIjZCBQPJR+3XBuMzClRiKYfJf010eXoafFDpR1nbXrqrsPYROCJXxsQHdwztBcbFFFdW7bsz1SOrkIKVZ8yMmZiyNAh+OH4cTz+WBbtsKXaKrth40bccMNNVDoV1cNzOUpFRQVmPPAgYmJikLd2DVWnavDSK6/h7nvu1UrFQqv8/C1YuGC+lvivp3GeWbwYRYWF3YIiEv8F83OwLm8tGmjRypw7D/Me/6MWgk29+3caaCJUXLkqF79NS+sQ5rV/N6L0a22wwmJpRsOZvYhQFURYgmA3NMIVGokKeyWC469HUHAk7OQ3it6EwYMHEeD+33H7e/Tl/H8AAAD//zXj6N0AABDoSURBVO1aCXhUVZb+q15VJZWlsrMkQTE0EMdu2UH2rUUQCFFHkWYRpRUQQR1FUHaGxQAiBgRiIwSCS7pbBHRYxG5AiThtA6M4EEjCmpUklcqeStWr6nNeJY8Q8hKHpomfc+/3VdV979zt/e/89yy3dCXlVW7c4eKQ3Xh6VS4u23TQ6XVwVcuI7W3G70dYEOgrNboanQ5IzXZh2acy8kqpKV0HmYEZg2Vs+y8rMvKdkGl8uN0I9NFj7rgQ9Ir2gclIDRspucUuzE+246pNgpsG9aJlbHzagDbBjffjIQ2ShCWLFyFh80bYbDZMmzYdc+ctQHBwcCMzAg6HA7NemIHdn36C8vJyrFqzFhMnPQVfX99G+13Ly8Wa1asweOhQDBnyW3h7eyvtvUwGvPTii0jasR1lZWVI3L4TI0aOVOQ6Au6jD3di4fx5yMvLw9ixT+LhUaOwdMliZGRkYPz4iVi6bDlCQ0MhSXpqNx9b/pCAVq1aY9u2bZgy5RmkpqbCz88P725+D8OHD6dxCfiaUlxsw9BBA3D+/HlYLAHYlJCAB4cNh8lkwuSnJuDAvn2oqqrC6JgxWLP2bbRuHV7bVf3lNVaUlMKanQudZEJO5lkEuwvhdhZArzej3FEIv/A+CInoCMlgRLUsw6A3wGyxkLxxvVEnucWKrjmIkmNz4bXEKlwtqqZlu+Esr8KcxwMwrIsZXqbGFbPM7sabu2WcuuqGw+V56rG99Hiil4Q9x2z46EgJbGUeAXEFPTt4Y/6EUIQFGGgm7VJc6cbKPTJOZ3rGdVW7ET9ZQnSEBOJyo+VOE8VND+aorobJywSDwUBKokc5EeOvf/kLFi6Ypyiry+XClm3bMWrUaJjNZjRElFdmz8a8N17H0SNHaCwvHPnqGNq37wA39R06eCBOnTqJwUOGktJvxiNjxuB/f/yxQaLw/J/u+jNmv/IKcnNzEBEZiV279yI6+l4inYQvD32BGdOnIisrC79q3x7vb92O+zt1UmT1gZVJ+YtyC2nzcSM3Px+lBZeByoswmnxhCeuI0PB7iHxeygbJfasqnfAPCSbiGOoPdVuv7zhR2CJ8f0nGyl125JY46WHc9GL0ePspE+5va4LUiFZy389OyUg65kJRhQeHln7AG2MkdGitR1GpE3M2X8P5nGrUcAguhxuzHg1CTF8LfL31muBVUbu1n8s4ftENOy2LifKfYyV0j5JgbGKzutNE4YcoLS3Bj6dPIyUlBce/ScE3KcdQUVFBhtSzHTAxmiLKytWrsWrlSuxM2qFYoLXr4smyjMfRo0fx0qyZyMnJxrr49Rg/YQIG9e+HHzWIwpbx6acm4ouDBxSrMWHiJLxKJAwKDlXwZlKPeng4zp1LhRdZv3Xx8YiNfRQ+Pjdbzmq7HWVWGxGXNjYibGWFgzYFmTYrHbx9jTDSy5AMerI4pDkycai8GpbQYBjIcv0rS7MQ5auzTryztxiFFfS0BAATYMMUP0SHN75759jcWPqJjIuFboUILqcbMx/SY9hvJJjJEjHHjp+twIqdhcgvlZVxGbwWARIWTwrFfW29aaeiRg0UO421fr+Mr9LcqGKiOJiAevTtKMHL2ECHOrfuJFF49z518gRWrliOw4f/Cju5M1xCQkIw9LfDYLUWIuXY1wppmiTKqtXIyszC+N+NxeVLl9Cte3dy15LIHXxeIaDT6cTX33yLrl27oEe3rpoW5cKFdDw7ZYqyLu5z1913IygoWLF0yuKIvOkZ6SgrZV8ZmPzMFCxevBTBtOZaYvN9JndJoRXVlVUKUQxECgftWrLsgstFGyqNw/dM5BrqjXrFRa4orYJfUCBMPh6ryeP8K0qzEOXQaRkJhypgLfM8kslLj3WTzOjQknaKhvVY2eVnf+wka0Ek4U2TPp3a6DA3RkKon051q0iPsOajfOz7ewUqyUoohQaN6emLqaOCEOjfsHmgTQvr9zlxtA5R5sTo0T9agvfPiCgG2k2ffOJxHDx4EE7ayR/798fx6mtzyM2Jhhe5YksWLcLGdzeguLi4SYuyPG4VWlMMMqBfb5w8cQKBgUFYsHAR3lqzGpmZVzF9xgy8/sZ8tGjRAt27dm6QKKzc7Ha99iq7Xbk1cDf8EmtJEUSx22GyWlFR7T3vp+abxyrMLoBLtsPbx0vRBds1K0qsJeRehcLLbEJFaTkq6dnCo8JhIHexktx234AAePn4KPHuDQPexotmIcrhMzI2HXKgoIR3fbcSPMZP9m6UKJ+fJJcrhVyuSs/T+5GlfXmEhF7t9KAY9oaSesWOZUkFuFRAZoGZRx8v8nkXjA9Bn/t8qf3NL1Ihyv4aolA3tii3SpSpFMy/fsvB/CQK5smfbKCwImVlZmL0yBFISzuv7NyJ23egS9fuir/PgfOc2a9i29Yt5JqV/iSitGrZioL/RCxauACFBQWIjGyD7OxssgYU/CcnY8DAIbQeMxGlS4NEMZmMlECYhQ/IfeM57/v1rxEREanETnUfwU4u1f9QzFNUVKRYhnfWv6skFMyk4LWFn892rQCVZVVEFKPiehXmWcktrEZkVCRCWgWjKN+Giz+cQ0S7cPj4m8niyPD294PZ3/e6Basd8Db+NgtRvkqVseGATETxBPOARIGzN+6NJJNaT4f5uswOvLjTicsFNf43AdAtSoeXH5IQ5l+vA8mYGxs+LcTu47T7kMLzoHrKkpjcDmyc2RLtI0xKm7o42sn6vLNPxrGMGteL3K/Fj+nRsx2Z+npErNuP6/Vdr+dfmKkEySFhYfWbKtdOp8eVqJ/1Wrd+PSZSjODr799gP87mpael4bFHxiA9PR13t22LxB1J6Ny5CymmEez29OnVA2fPnqHnoxjl/W0Y88ijZGko+KVSP+vFFiWM1nghIw0Txo3DmTNnyMXxRHe9+/RFwntblDm8yPdsiChmsw9lqWwYOHAAUs+dgz+tezNlux4eFUMJhOsE4LkdTgfGjxuLLw4cAJOG3bO9n+/DPfdEsVgtlSUlyLmQCS9fHyKUBGtBkZLhirynFVmVAHLLqpF6kmIdgxuWkEBIRoPievlYfmFEYUQu59Pu/kcnctllJVeJ383UQTqM6uqJNVTUqJJX4kbcXhmp5HJRGKG4XCH0DuY/QhmpcD0F/3VbX69XVbuwcFs+vku3w0lEpO0GOpeMYZ29MX10EEIsN7pgVsqULd3lxLk8HTi77KLs2rvPUJKA4iYmXmOlPlEslK4MCg7RyOo4sWzFm3jooeGKvG56OIRSs/7+nOq8+aGcpGgbNm5C9+49MGb0SMVV4gzRUEoR9+/fn9wOPfbs2YuLFzIUt4sVvlOnzhhC8uemTkM47fLJH394Q3q4liiVFZVKXPLZ3j1KbMMke+65qZjzxjxKF4dRlsnQIFE4GE/YvAlvrliGfMpQdejQAVsTkxSrwtmuuoWfia3OwgXzKT2dC37WxB070YcIaTRe92157uyL2SilgN4/OIgCeTty0s7gvt4PwJdiEZZbycrknf0BDr03/M1GRPxbNMUopBRNvai6C/o/1u+4ReH1KcTYQhaiiDSyRgnJ/UT8BAPuDvXcYE44KG7YUBM3UBbQU0gwZ6SEfh31TQbZpy9WYWVyIbKKJfJ7XYoy6d0uPD/CF6N7+8NMsREX1stjqS6sPySjsNwzTWsLEPekAa0Cm2AJNecU7ZJFC/FewiblHMUzQsPf/KL/sGUrYsbEQk/K9OLMF9RzlIZ7eO6yoiX/6RMK2B9EIrlWKyiYLyDlrPX7eVwuTMLEre/jAhGGyRIV1Q5bKUDvROnYPyZ/VIco47A8Lk6xKJROwTvr3sLba9fCWlioEJWt0cjRMcoZTF2isNXYsClBOUfhfo/GxuDbb48r1uzxJ8ZixZtxFNO09Cy6zjevr9RqpbOfQUr6mp9nwcLFmPLscwigGKNuqSorpaC+EKFEbrYYOd8eQtC93WHy9xDFXl6G6mtXYW51F6787SAiug2Bl19g3SFue71ZiMKKuelLJ/Z/7wZl/5RC+ovOdwExXfWIDNFToO/GZydknLgE2D3eAPmswMCOOjw7REILiydb1hgiMkX927+w4U/HKkFuLqUUOVmgh0wMjO1nwdD7jQj0MyCdrNWWw3ZYK0muJ1LRPFP66xDb42YL19B8vHt+kJREAfZ+OjisyVA01JDuscLMnDkLPR/oQ9ZQjw3r4/Hdd39DNe2cjRVe99y5r+M393eCkyzJe3S2cYSyXgUUV3Bp2bIF5pC8U+euSCZCHNy/X4kH2rRpg5de/g+079CRzlkOkVX5WLE4vR54AL9XlNSjfOnpaUSUNbhGh5F8eBcXtxp3tW2rrNdgkJQ45MrlSwpxpk6fgR49eihWZO1ba5TA301YT5v2PPqSdat19eo/D4+zYtkyfP/9KeWwtV//AZg8+RlY6hOlohwVRVYEUqKBDxazMs7DLzCEPoEKiR2U6cu6koHItu2Rn3kJ/pSE8A0MVt5d/Tlv13WzEIUXn1nkwpJdMq5YyZti88GFfil9DrKmCoHYotSKuBJGMe7ixyS0o+xY/VjGM8DN33Y6lVyelI+UNCcc5PNK7K+TgnJ/P28TxR96ioFIxl2JIBzLWLx1iBsnISpMOwtXfyZ2gzhGaKrwxi+RIiquCV1wH+7bVGGCsYvHVqi2MCntdo7zQGcSPoqCcjv+8Ck4j8vWjl0bvld3jUxSPqTj+1zYMrF7x2lYvmU0chznkbGc4ym2UHyv9pDTRa6s0ykrfbkpx0kNuY3cv7bUXQO35bHqzsPteC08NhOWZUrcRPeUsWvWxOPwtbIm6lNXVjvX7fxtNqLQ+0Byiow//92FUs+71n4uahvMJIkFxQx0El0DlnaHGyVFZTJWfFiAU1cAmf4aweRjn55fQu1LYmvDjNXrTIjtpsOE/gZYfK4ryo0jiqv/bwg0G1EYaP47ygdfy9j/A7lgGpsxu1sWitNeHi6hZ9TNqeCf8sJY3a/mOxC/x4YTF2gHJ7LoyA0gunh2Iq4RUdxuPQZFG/D0YAPCgzwHmD9lfNHml49AsxKF4aWNHXvojGT3f7tQQO49nxGytWE15li75690mPaghCBfOlRkU/BPFYpZDlfgy9MG5NvK4SS/n0wL/UXFBB+abHhnHX7Xl9KNXtcPMP+p6UTnXwwCzU4URpI9KVu5G1etbuQTWarJuvhRKBFBiYwI+veuUeNvJ7fyFniuglIXrhQCVvq/GJPPn+ZqE6JDywAdbuNUt7I80ednisDPgig/U2zEsgQCKgKCKCoUoiIQ0EZAEEUbGyERCKgICKKoUIiKQEAbAUEUbWyERCCgIiCIokIhKgIBbQQEUbSxERKBgIqAIIoKhagIBLQREETRxkZIBAIqAoIoKhSiIhDQRkAQRRsbIREIqAgIoqhQiIpAQBsBQRRtbIREIKAiIIiiQiEqAgFtBARRtLEREoGAioAgigqFqAgEtBEQRNHGRkgEAioCgigqFKIiENBGQBBFGxshEQioCAiiqFCIikBAGwFBFG1shEQgoCIgiKJCISoCAW0EBFG0sRESgYCKgCCKCoWoCAS0ERBE0cZGSAQCKgKCKCoUoiIQ0EZAEEUbGyERCKgICKKoUIiKQEAbAUEUbWyERCCgIiCIokIhKgIBbQQEUbSxERKBgIqAIIoKhagIBLQREETRxkZIBAIqAoIoKhSiIhDQRkAQRRsbIREIqAgIoqhQiIpAQBsBQRRtbIREIKAiIIiiQiEqAgFtBARRtLEREoGAioAgigqFqAgEtBEQRNHGRkgEAioCgigqFKIiENBG4B9MXMkDGHTn7wAAAABJRU5ErkJggg==;" vertex="1" parent="1">
          <mxGeometry x="300" y="170" width="106.31" height="60" as="geometry" />
        </mxCell>
      </root>
    </mxGraphModel>
  </diagram>
</mxfile>
